<?xml version="1.0" encoding="UTF-8"?>
<svg version="1.1" xmlns="http://www.w3.org/2000/svg" width="256" height="256">
<path d="M0 0 C12.54 0 25.08 0 38 0 C37.01 3.63 36.02 7.26 35 11 C29.76440084 32.81499648 31.84057303 54.01111559 42.88671875 73.76171875 C54.39164809 91.39126851 72.86394069 105.04606368 93 111 C99.89703439 112.04936474 106.48678279 112.81252561 113 110 C114.22954622 107.54090755 114.18925376 105.77524195 114.28125 103.02734375 C114.31863281 102.04572266 114.35601562 101.06410156 114.39453125 100.05273438 C114.46497585 97.97200968 114.53528785 95.89128048 114.60546875 93.81054688 C114.64285156 92.83021484 114.68023437 91.84988281 114.71875 90.83984375 C114.74904297 89.93613037 114.77933594 89.03241699 114.81054688 88.10131836 C115 86 115 86 116 85 C122.26746077 84.14479093 127.13656114 84.71561516 132.3046875 88.4609375 C135.74248682 91.58188896 137.66925342 94.57664528 138.3046875 99.23242188 C138.50330734 106.07928899 136.72711072 110.38147911 133.5 116.3125 C129.26166477 124.75788235 128.39761042 131.39927603 128.80444336 140.75048828 C129.23353256 150.87087716 127.01745893 157.00028594 120.3125 164.6875 C118.91213849 166.16120287 117.48488292 167.61149893 116 169 C115.67 169 115.34 169 115 169 C114.97494385 168.25314941 114.9498877 167.50629883 114.92407227 166.73681641 C114.80831787 163.36602733 114.68549872 159.99553217 114.5625 156.625 C114.52318359 155.449375 114.48386719 154.27375 114.44335938 153.0625 C114.38051758 151.38027344 114.38051758 151.38027344 114.31640625 149.6640625 C114.27974854 148.62717285 114.24309082 147.5902832 114.20532227 146.52197266 C114.15835777 144.00574834 114.15835777 144.00574834 113 142 C111.68 142 110.36 142 109 142 C107.60439955 144.79120091 107.78191712 147.20205692 107.68359375 150.3203125 C107.64169922 151.57714844 107.59980469 152.83398438 107.55664062 154.12890625 C107.51732422 155.44761719 107.47800781 156.76632813 107.4375 158.125 C107.39430488 159.46485751 107.35069027 160.80470156 107.30664062 162.14453125 C107.20029019 165.42957815 107.09826192 168.71470281 107 172 C103.36846731 171.3284307 100.50812194 170.45322716 97.25 168.6875 C96.08210938 168.07455078 96.08210938 168.07455078 94.890625 167.44921875 C93 166 93 166 92.08203125 164.171875 C91.96687928 161.12308962 93.05541494 159.26299682 94.4375 156.5625 C96.35864059 152.79873954 97.31600924 150.24685594 97 146 C94.59123688 146.14385904 94.59123688 146.14385904 92 147 C90.31047873 149.04018292 90.31047873 149.04018292 89.0625 151.625 C78.45174389 170.447095 54.62102435 185.03665479 34.32421875 191.09765625 C18.24902606 194.96547143 0.36846142 192.30347749 -13.8125 184.03125 C-18.14639873 181.26945179 -22.42972398 178.44017214 -26.6875 175.5625 C-27.48373779 175.0250415 -28.27997559 174.48758301 -29.1003418 173.93383789 C-36.4101172 168.9003422 -43.19873023 163.72273544 -48.3125 156.375 C-48.94800781 155.47523438 -49.58351562 154.57546875 -50.23828125 153.6484375 C-52 151 -52 151 -53.48046875 148.1640625 C-53.98191406 147.44992188 -54.48335937 146.73578125 -55 146 C-56.32 146 -57.64 146 -59 146 C-58.5500438 151.28698539 -57.17250531 155.16855003 -54.7421875 159.88671875 C-53.83743049 162.4628953 -53.85010235 163.52721124 -55 166 C-56.890625 167.44921875 -56.890625 167.44921875 -59.25 168.6875 C-60.01828125 169.10386719 -60.7865625 169.52023438 -61.578125 169.94921875 C-64.05896973 171.02558525 -66.34997941 171.50993902 -69 172 C-69.02505615 171.16227051 -69.0501123 170.32454102 -69.07592773 169.46142578 C-69.17100357 166.35647744 -69.27024025 163.25169819 -69.37231445 160.14697266 C-69.43698251 158.14105193 -69.49683106 156.13497772 -69.55664062 154.12890625 C-69.59853516 152.87207031 -69.64042969 151.61523438 -69.68359375 150.3203125 C-69.72025146 149.15773926 -69.75690918 147.99516602 -69.79467773 146.79736328 C-69.81821659 144.0464499 -69.81821659 144.0464499 -71 142 C-72.32 142 -73.64 142 -75 142 C-76.31361698 144.62723396 -76.21253909 146.72610561 -76.31640625 149.6640625 C-76.35830078 150.78554687 -76.40019531 151.90703125 -76.44335938 153.0625 C-76.48267578 154.238125 -76.52199219 155.41375 -76.5625 156.625 C-76.60568359 157.80835938 -76.64886719 158.99171875 -76.69335938 160.2109375 C-76.79967426 163.14050328 -76.90170642 166.07015588 -77 169 C-84.58815439 162.78022252 -84.58815439 162.78022252 -86.8125 159.0625 C-87.37904297 158.15177734 -87.37904297 158.15177734 -87.95703125 157.22265625 C-90.57855704 151.63595897 -91.10654639 146.96912495 -90.71875 140.93286133 C-90.09883171 130.53663796 -91.81761206 123.08003837 -96.79907227 113.92504883 C-99.82557097 108.24684073 -101.01394687 103.44919768 -100 97 C-97.91659412 91.92815798 -95.00161973 88.09807987 -90.04296875 85.61328125 C-86.11130861 84.43303146 -82.05239064 84.52644477 -78 85 C-76.36187626 86.63812374 -76.83323638 88.54776681 -76.7890625 90.8046875 C-76.76070312 91.78050781 -76.73234375 92.75632812 -76.703125 93.76171875 C-76.65124216 95.82925009 -76.60691176 97.8969854 -76.5703125 99.96484375 C-76.52390625 101.43244141 -76.52390625 101.43244141 -76.4765625 102.9296875 C-76.45674316 103.82929199 -76.43692383 104.72889648 -76.41650391 105.65576172 C-75.92381793 108.42878093 -75.22435127 109.32241664 -73 111 C-59.5589803 114.33229939 -46.46992385 108.82951281 -34.9375 102.25 C-16.41222026 90.64201222 -2.17744061 74.53749105 3.75 53.25 C7.46595384 36.75116494 6.25765981 20.34259193 0.8046875 4.44140625 C0 2 0 2 0 0 Z M9 93 C6.80935091 95.88076426 6.80935091 95.88076426 6.3125 99.3125 C4.34277816 104.84648042 0.90529112 107.38594938 -4.14453125 110.19140625 C-14.82887293 115.26225843 -25.96298552 115.53431805 -37.60742188 116.12304688 C-49.71328164 116.52074918 -49.71328164 116.52074918 -60 122 C-59.67958603 124.60280568 -59.67958603 124.60280568 -59 127 C-55.27091669 126.49800802 -51.63852314 125.95792977 -48 125 C-47.99742188 125.56847656 -47.99484375 126.13695312 -47.9921875 126.72265625 C-47.72147465 132.12788957 -46.72539636 135.49260817 -42.953125 139.4296875 C-33.1826191 147.28517424 -22.0192956 147.99662935 -10 147 C-2.00009902 145.27162633 4.24871562 140.9050488 8.9375 134.25 C10.72415824 128.78492775 11.16351125 123.73505944 8.875 118.35546875 C7.66330363 116.16959603 6.3997373 114.06961159 5 112 C5.61488281 111.73058594 6.22976562 111.46117188 6.86328125 111.18359375 C10.79055575 109.00815651 12.61877076 105.14368772 14 101 C14.03954234 98.66700175 14.04401732 96.33291811 14 94 C12.35 93.67 10.7 93.34 9 93 Z M25 93 C23.64162574 94.14182348 23.64162574 94.14182348 23.75 97.1875 C24.15218135 103.32076561 26.90992866 107.51411531 31 112 C31.66 112 32.32 112 33 112 C32.45859375 112.80050781 32.45859375 112.80050781 31.90625 113.6171875 C28.26889021 119.45717072 26.80290271 124.13664218 28 131 C29.9297022 137.06477833 34.59640724 140.92736882 40 144 C45.63635925 146.66922889 50.66891723 147.52128511 56.875 147.4375 C58.05799683 147.42614014 58.05799683 147.42614014 59.26489258 147.41455078 C68.14169128 147.16419125 75.05402626 144.70901545 81.59375 138.5703125 C84.67238815 135.13249989 85.93294724 132.20694975 86.1875 127.625 C86.125625 126.75875 86.06375 125.8925 86 125 C87.051875 125.350625 88.10375 125.70125 89.1875 126.0625 C92.7954681 126.94970527 94.52632489 127.05262882 98 126 C97.96906827 123.58414426 97.96906827 123.58414426 97 121 C91.53275966 117.52084706 86.15659169 116.92289943 79.80859375 116.5703125 C78.61556641 116.49683594 77.42253906 116.42335938 76.19335938 116.34765625 C73.71715495 116.20086098 71.24058465 116.0600955 68.76367188 115.92578125 C56.57291605 115.15446265 42.80748081 113.65804594 34.0625 104.125 C31.76786356 100.64827812 30.88712935 98.03240616 30 94 C28.34385343 93.61781233 26.67542976 93.28604898 25 93 Z M-19 157 C-20.40206859 158.1963063 -20.40206859 158.1963063 -20.4375 161.625 C-20.40473429 166.17124166 -18.60824528 168.39748228 -15.60546875 171.65234375 C-12.78828639 174.01713187 -10.08667193 174.13688591 -6.5625 174.125 C-5.80066406 174.12757813 -5.03882812 174.13015625 -4.25390625 174.1328125 C-1.998482 174.09287689 -1.998482 174.09287689 0.0625 173.34375 C2 173 2 173 3.81640625 173.9609375 C4.39261719 174.42757812 4.96882813 174.89421875 5.5625 175.375 C11.62083459 180.20547613 18.53162552 179.61961071 26 179 C30.13798203 177.68506896 33.39752821 175.40164786 37 173 C37.99 173.33 38.98 173.66 40 174 C44.22177069 174.41110876 47.87396541 174.47543683 51.8125 172.8125 C56.34150568 169.18424422 56.34150568 169.18424422 58.24609375 163.8984375 C58.24957052 161.93058423 58.13310843 159.96334936 58 158 C56.35 157.67 54.7 157.34 53 157 C50.86539589 159.78025473 50.86539589 159.78025473 50.5 162.625 C50.335 163.40875 50.17 164.1925 50 165 C45.89536598 167.05231701 41.22799641 166.05315269 36.875 165.1875 C32.88120716 164.55318131 32.88120716 164.55318131 30.1875 167.375 C29.465625 168.24125 28.74375 169.1075 28 170 C24.83990467 171.05336511 22.4446864 171.20032888 19.125 171.25 C17.58199219 171.28867188 17.58199219 171.28867188 16.0078125 171.328125 C12.55466474 170.95141797 10.79341711 170.02641106 8 168 C7.55785156 167.43539062 7.11570312 166.87078125 6.66015625 166.2890625 C3.88997243 164.13809624 0.73605487 165.00051884 -2.5625 165.375 C-9.78283815 166.10858092 -9.78283815 166.10858092 -12 165 C-12.73075648 162.6859378 -13.40138258 160.35171131 -14 158 C-15.65614657 157.61781233 -17.32457024 157.28604898 -19 157 Z " fill="#000000" transform="translate(109,0)"/>
<path d="M0 0 C15.56112263 2.30662658 28.08960805 9.75561073 40.0625 19.625 C40.62316162 20.0802002 41.18382324 20.53540039 41.76147461 21.00439453 C44.96224181 23.72285435 46.82188177 25.94610247 48 30 C41.07189348 32.71328887 34.34686463 34.78880323 27 36 C26.40929986 37.94603274 26.40929986 37.94603274 26 40 C26.98391255 41.21713133 26.98391255 41.21713133 28.86328125 41.01953125 C43.76269189 39.76009144 58.22027139 33.55266187 68 22 C69.03707354 20.69529458 70.06281663 19.37821084 71 18 C72.65 18.33 74.3 18.66 76 19 C77.26086457 36.65210391 69.29650861 53.76717308 58.18164062 67.06982422 C55.22353722 70.48199114 52.19427546 73.80572454 49 77 C49 78.32 49 79.64 49 81 C53.14817482 80.87429773 54.9662044 79.28443323 57.75 76.4375 C58.34296875 75.79683594 58.9359375 75.15617187 59.546875 74.49609375 C60.02640625 74.00238281 60.5059375 73.50867188 61 73 C61.33 73 61.66 73 62 73 C62 82.9 62 92.8 62 103 C49.8263871 105.43472258 39.22422456 100.18151091 29 94 C25.44000898 91.55130347 22.21735775 88.87868851 19 86 C18.14792969 85.28972656 17.29585937 84.57945313 16.41796875 83.84765625 C3.49188506 72.82075727 -4.62101993 57.96300591 -6.30322266 40.9296875 C-6.43549239 37.84240284 -6.46692532 34.77739988 -6.4375 31.6875 C-6.43282715 30.60315674 -6.4281543 29.51881348 -6.42333984 28.40161133 C-6.2394254 18.36780763 -4.81250843 8.95299993 0 0 Z " fill="#000000" transform="translate(154,2)"/>
<path d="M0 0 C1.23046875 2.765625 1.23046875 2.765625 2.1875 6.25 C2.51105469 7.38953125 2.83460937 8.5290625 3.16796875 9.703125 C7.87367355 28.34920413 6.59384915 49.73225455 -3.3125 66.44921875 C-14.26657494 83.00711443 -30.63722124 96.62682889 -50 102 C-59.64363636 103.67818182 -59.64363636 103.67818182 -63 102 C-63 92.1 -63 82.2 -63 72 C-56 78 -56 78 -54 80 C-52.68 80 -51.36 80 -50 80 C-50.46331462 75.28261474 -52.2645105 73.3030246 -55.5625 70 C-67.62477632 57.17952346 -77.13107051 39.6602941 -77.1875 21.6875 C-77.125625 20.470625 -77.06375 19.25375 -77 18 C-74.77734375 17.19140625 -74.77734375 17.19140625 -72 17 C-69.81640625 19.02734375 -69.81640625 19.02734375 -67.5625 21.9375 C-58.60933883 32.62077366 -46.51516654 37.55148353 -33 40 C-31.33418374 40.05323514 -29.66495405 40.07553667 -28 40 C-27.67 38.68 -27.34 37.36 -27 36 C-32.59510242 34.08633767 -38.25970069 32.49386004 -43.953125 30.90234375 C-47 30 -47 30 -49 29 C-45.15937019 17.16670814 -30.29942523 10.14987653 -19.9375 4.75 C-4.91648972 -2.53587365 -4.91648972 -2.53587365 0 0 Z " fill="#000000" transform="translate(103,3)"/>
<path d="M0 0 C8.25 0 16.5 0 25 0 C26.155 2.31 27.31 4.62 28.5 7 C28.89050537 7.77520996 29.28101074 8.55041992 29.68334961 9.34912109 C31.52868485 13.01533269 33.33543642 16.69235248 35.06640625 20.4140625 C40.37461922 31.77912592 40.37461922 31.77912592 50.328125 39.1015625 C56.32986293 41.11969075 63.15463031 41.29471848 68.953125 38.65625 C69.89671875 38.1096875 70.8403125 37.563125 71.8125 37 C79.08890829 32.96289104 85.96254193 32.73985582 94 34 C97.18603963 35.34067931 100.06381107 36.92898404 103.05859375 38.6484375 C108.91139738 41.33777357 115.2539219 41.04841138 121.38671875 39.33203125 C132.36900342 34.54166327 136.05792054 22.89142553 140.39819336 12.65380859 C141.20906375 10.75394662 142.04249622 8.86528928 142.87890625 6.9765625 C143.59929077 5.29167725 143.59929077 5.29167725 144.33422852 3.57275391 C146 1 146 1 148.37744141 0.13256836 C150.95360798 0.00234508 153.50224264 -0.11348317 156.08203125 -0.09765625 C157.01337891 -0.09443359 157.94472656 -0.09121094 158.90429688 -0.08789062 C159.86400391 -0.07951172 160.82371094 -0.07113281 161.8125 -0.0625 C162.79154297 -0.05798828 163.77058594 -0.05347656 164.77929688 -0.04882812 C167.18626111 -0.03708684 169.59309857 -0.02066419 172 0 C169.02777762 9.83561511 162.75297733 17.4714272 156.2578125 25.265625 C150.64997136 32.05712811 145.93345315 38.91770106 141.9375 46.75 C137.37180253 55.57598978 132.62644668 61.26932763 123.26953125 65.109375 C112.19185828 68.126949 102.83688079 66.37512236 92.54614258 61.94433594 C87.33309049 59.81495994 84.2690065 59.78792893 79.12890625 61.921875 C78.42636719 62.27765625 77.72382812 62.6334375 77 63 C68.16307484 67.18591192 57.90040446 67.74435249 48.51171875 64.96875 C37.1153231 59.75565923 32.00688907 51.34493644 26.63598633 40.57958984 C23.59990773 34.68507898 19.89676547 30.01183699 15.46435547 25.11645508 C8.74426782 17.63709041 3.19713623 9.59140869 0 0 Z " fill="#000000" transform="translate(42,190)"/>
<path d="M0 0 C1.60940114 0.92826882 3.21797665 1.85841969 4.80883789 2.81811523 C21.88030585 13.10662766 41.55757955 16.2067282 61.0625 11.4375 C69.45881767 8.82758267 77.00915861 4.73589006 84.2421875 -0.22265625 C87 -2 87 -2 89.0625 -1.9375 C91.47654948 -0.76941154 93.74070614 0.55656226 96 2 C95.37143878 5.91834435 94.16760882 9.14548449 92.49609375 12.73828125 C92.00302734 13.80498047 91.50996094 14.87167969 91.00195312 15.97070312 C90.48568359 17.07349609 89.96941406 18.17628906 89.4375 19.3125 C88.91736328 20.43462891 88.39722656 21.55675781 87.86132812 22.71289062 C86.57900626 25.47752951 85.29175153 28.23975766 84 31 C83.34 31 82.68 31 82 31 C80.02 26.38 78.04 21.76 76 17 C74.68 17 73.36 17 72 17 C69.03 23.93 66.06 30.86 63 38 C59.05505164 37.21101033 57.48322496 36.87079651 54.3125 35 C47.50201068 31.49234196 40.44160543 31.37118091 33.10546875 33.25390625 C29.80332432 34.4240539 26.99946169 36.20032299 24 38 C23.01 38 22.02 38 21 38 C16.545 27.605 16.545 27.605 12 17 C10.68 17 9.36 17 8 17 C6.02 21.62 4.04 26.24 2 31 C1.34 31 0.68 31 0 31 C-1.74236304 27.3774685 -3.46913892 23.74796045 -5.18188477 20.11132812 C-5.76652398 18.875595 -6.35536281 17.64183959 -6.94848633 16.41015625 C-7.8009358 14.63809028 -8.63701899 12.85818069 -9.47265625 11.078125 C-9.98062744 10.00981445 -10.48859863 8.94150391 -11.01196289 7.84082031 C-12.02946384 4.9152851 -12.32245952 3.76864428 -11 1 C-6.5407959 -2.04036643 -4.74982632 -2.3029461 0 0 Z " fill="#000000" transform="translate(86,185)"/>
<path d="M0 0 C0.61746094 0.19335938 1.23492187 0.38671875 1.87109375 0.5859375 C2.71800781 0.84632812 3.56492188 1.10671875 4.4375 1.375 C5.26121094 1.63023438 6.08492187 1.88546875 6.93359375 2.1484375 C14.6152448 4.28168582 22.12035779 5.45071931 30.0625 6.125 C31.02349609 6.21136719 31.98449219 6.29773438 32.97460938 6.38671875 C35.31599448 6.59639503 37.65771078 6.8007244 40 7 C40.23263216 11.12340496 40.26715558 13.53029323 37.5 16.6875 C32.37082125 22.02940967 27.39059595 23.09401233 20.18237305 23.40014648 C12.21029849 23.54061952 5.71298351 22.77485409 -0.6484375 17.6796875 C-3.27759604 15.02147748 -4.34302551 12.57940486 -4.5625 8.9375 C-3.95356754 4.6749728 -3.00257144 3.00257144 0 0 Z " fill="#000000" transform="translate(148,117)"/>
<path d="M0 0 C1.82104492 1.29785156 1.82104492 1.29785156 3.82104492 4.29785156 C4.34209776 8.20574786 4.64269726 10.77235733 2.75854492 14.27050781 C-0.70774544 18.70698271 -4.57834432 21.3545908 -10.17895508 22.29785156 C-19.78697068 23.09768637 -29.07219065 23.44952961 -36.82739258 16.90722656 C-39.29089425 14.32123034 -40.16440451 12.68179885 -40.30004883 9.10253906 C-40.26008789 8.17699219 -40.22012695 7.25144531 -40.17895508 6.29785156 C-39.03849731 6.1929541 -39.03849731 6.1929541 -37.875 6.0859375 C-34.37054772 5.75494224 -30.86868708 5.40153871 -27.36645508 5.04785156 C-26.17084961 4.93828125 -24.97524414 4.82871094 -23.7434082 4.71582031 C-16.78888721 3.99573367 -10.87727551 2.77896949 -4.47705078 -0.08398438 C-2.17895508 -0.70214844 -2.17895508 -0.70214844 0 0 Z " fill="#000000" transform="translate(108.178955078125,117.7021484375)"/>
<path d="M0 0 C3.27775371 0.46429069 4.98976741 1.65914951 7.4375 3.8125 C11.98154911 7.40126606 16.79702524 8.68969203 22.33984375 10.140625 C23.21769531 10.42421875 24.09554687 10.7078125 25 11 C25.495 11.99 25.495 11.99 26 13 C15.84565491 17.43098695 3.8708992 17.79273632 -6.5625 14 C-8.05412032 13.36168402 -9.53948717 12.706598 -11 12 C-11 11.01 -11 10.02 -11 9 C-8.84765625 6.9921875 -8.84765625 6.9921875 -6.0625 4.875 C-5.14597656 4.17117187 -4.22945312 3.46734375 -3.28515625 2.7421875 C-2.53105469 2.16726562 -1.77695313 1.59234375 -1 1 C-0.67 0.67 -0.34 0.34 0 0 Z " fill="#000000" transform="translate(193,168)"/>
<path d="M0 0 C3.02678482 1.40988868 5.3176395 3.39520161 7.86328125 5.546875 C8.848125 6.37316406 9.83296875 7.19945312 10.84765625 8.05078125 C11.96914062 9.00791016 11.96914062 9.00791016 13.11328125 9.984375 C8.75795834 14.75385438 3.29752019 15.93648954 -2.94140625 16.27734375 C-10.81864241 16.50560606 -17.56061415 16.18122064 -24.88671875 12.984375 C-24.55671875 12.324375 -24.22671875 11.664375 -23.88671875 10.984375 C-21.9045363 10.36199331 -19.89951264 9.81172159 -17.88671875 9.296875 C-12.03395007 7.61364186 -8.22443034 5.40623703 -3.7890625 1.27734375 C-1.88671875 -0.015625 -1.88671875 -0.015625 0 0 Z " fill="#000000" transform="translate(61.88671875,168.015625)"/>
<path d="M0 0 C0.66 0 1.32 0 2 0 C3.49821059 3.37097383 4 5.20442119 4 9 C1.69 9.33 -0.62 9.66 -3 10 C-2.39009109 6.44219804 -1.4216319 3.3171411 0 0 Z " fill="#000000" transform="translate(159,214)"/>
<path d="M0 0 C0.66 0 1.32 0 2 0 C5 6.625 5 6.625 5 10 C2.69 9.67 0.38 9.34 -2 9 C-1.34 6.03 -0.68 3.06 0 0 Z " fill="#000000" transform="translate(95,214)"/>
</svg>
